<svg width="15" height="15" viewBox="0 0 15 15" fill="none" xmlns="http://www.w3.org/2000/svg">
<path d="M12.7589 2.23941H10.8652V0.862635C10.8652 0.597232 10.6454 0.381592 10.3749 0.381592C10.1043 0.381592 9.88454 0.597232 9.88454 0.862635V2.23941H5.31932V0.862635C5.31932 0.597232 5.09951 0.381592 4.82898 0.381592C4.55845 0.381592 4.33864 0.597232 4.33864 0.862635V2.23941H2.44492C1.43043 2.23941 0.601929 3.05221 0.601929 4.04747V12.5735C0.601929 13.5688 1.43043 14.3816 2.44492 14.3816H12.7589C13.7734 14.3816 14.6019 13.5688 14.6019 12.5735V4.04747C14.6019 3.05221 13.7734 2.23941 12.7589 2.23941ZM2.44492 3.2015H4.33864V3.865C4.33864 4.13041 4.55845 4.34605 4.82898 4.34605C5.09951 4.34605 5.31932 4.13041 5.31932 3.865V3.2015H9.86763V3.865C9.86763 4.13041 10.0874 4.34605 10.358 4.34605C10.6285 4.34605 10.8483 4.13041 10.8483 3.865V3.2015H12.742C13.2155 3.2015 13.6043 3.58301 13.6043 4.04747V5.65647H1.5826V4.04747C1.5826 3.58301 1.97149 3.2015 2.44492 3.2015ZM12.7589 13.4195H2.44492C1.97149 13.4195 1.5826 13.038 1.5826 12.5735V6.63515H13.6213V12.5735C13.6213 13.038 13.2324 13.4195 12.7589 13.4195Z" fill="#314363"/>
</svg>
